<?xml version="1.0" encoding="utf-8"?>
<svg xmlns="http://www.w3.org/2000/svg" xmlns:xlink="http://www.w3.org/1999/xlink" width="199px" height="56px" viewBox="0 0 201 56" version="1.1">
<g id="surface1">
<path style="stroke:none;fill-rule:nonzero;fill:rgb(12.156863%,12.156863%,12.156863%);fill-opacity:0.301961;" d="M 22.210938 40.726562 L 41.460938 40.726562 L 36.648438 36.027344 L 17.398438 36.027344 Z M 22.210938 40.726562"/>
<path style="stroke:none;fill-rule:nonzero;fill:rgb(12.156863%,12.156863%,12.156863%);fill-opacity:1;" d="M 22.210938 21.929688 L 22.210938 40.726562 L 17.398438 36.027344 L 17.398438 17.230469 Z M 22.210938 21.929688"/>
<path style="stroke:none;fill-rule:nonzero;fill:rgb(12.156863%,12.156863%,12.156863%);fill-opacity:1;" d="M 36.648438 17.230469 L 17.398438 17.230469 L 22.210938 21.929688 L 41.460938 21.929688 Z M 36.648438 17.230469"/>
<path style="stroke:none;fill-rule:nonzero;fill:rgb(12.156863%,12.156863%,12.156863%);fill-opacity:1;" d="M 10.175781 10.183594 L 14.992188 14.882812 L 14.992188 26.628906 L 10.175781 22.125 Z M 10.175781 10.183594"/>
<path style="stroke:none;fill-rule:nonzero;fill:rgb(12.156863%,12.156863%,12.156863%);fill-opacity:1;" d="M 10.175781 10.183594 L 14.992188 14.882812 L 27.023438 14.882812 L 22.410156 10.183594 Z M 10.175781 10.183594"/>
<path style="stroke:none;fill-rule:nonzero;fill:rgb(12.156863%,12.156863%,12.156863%);fill-opacity:1;" d="M 55.996094 41.058594 C 50.144531 41.058594 46.351562 36.988281 46.351562 30.691406 C 46.351562 24.453125 50.28125 20.300781 56.160156 20.300781 C 60.914062 20.300781 64.460938 23.078125 65.144531 27.394531 L 61.4375 27.394531 C 60.75 25.058594 58.742188 23.683594 56.078125 23.683594 C 52.367188 23.683594 50.035156 26.378906 50.035156 30.664062 C 50.035156 34.925781 52.394531 37.675781 56.078125 37.675781 C 58.800781 37.675781 60.886719 36.246094 61.546875 34.019531 L 65.203125 34.019531 C 64.433594 38.253906 60.75 41.058594 55.996094 41.058594 Z M 66.429688 33.910156 C 66.429688 29.675781 69.476562 26.761719 73.683594 26.761719 C 77.886719 26.761719 80.9375 29.675781 80.9375 33.910156 C 80.9375 38.144531 77.886719 41.058594 73.683594 41.058594 C 69.476562 41.058594 66.429688 38.144531 66.429688 33.910156 Z M 69.78125 33.910156 C 69.78125 36.382812 71.375 38.0625 73.683594 38.0625 C 75.992188 38.0625 77.585938 36.382812 77.585938 33.910156 C 77.585938 31.433594 75.992188 29.757812 73.683594 29.757812 C 71.375 29.757812 69.78125 31.433594 69.78125 33.910156 Z M 86.308594 40.726562 L 82.957031 40.726562 L 82.957031 27.148438 L 86.035156 27.148438 L 86.308594 28.742188 C 86.996094 27.613281 88.371094 26.734375 90.320312 26.734375 C 92.382812 26.734375 93.8125 27.75 94.527344 29.320312 C 95.214844 27.75 96.808594 26.734375 98.867188 26.734375 C 102.164062 26.734375 103.980469 28.714844 103.980469 31.847656 L 103.980469 40.726562 L 100.652344 40.726562 L 100.652344 32.726562 C 100.652344 30.777344 99.609375 29.757812 98.015625 29.757812 C 96.394531 29.757812 95.160156 30.804688 95.160156 33.03125 L 95.160156 40.726562 L 91.804688 40.726562 L 91.804688 32.699219 C 91.804688 30.804688 90.789062 29.785156 89.195312 29.785156 C 87.601562 29.785156 86.308594 30.832031 86.308594 33.03125 Z M 109.984375 40.726562 L 106.632812 40.726562 L 106.632812 27.148438 L 109.710938 27.148438 L 109.984375 28.742188 C 110.671875 27.613281 112.046875 26.734375 113.996094 26.734375 C 116.058594 26.734375 117.488281 27.75 118.203125 29.320312 C 118.890625 27.75 120.484375 26.734375 122.542969 26.734375 C 125.839844 26.734375 127.65625 28.714844 127.65625 31.847656 L 127.65625 40.726562 L 124.328125 40.726562 L 124.328125 32.726562 C 124.328125 30.777344 123.285156 29.757812 121.691406 29.757812 C 120.070312 29.757812 118.835938 30.804688 118.835938 33.03125 L 118.835938 40.726562 L 115.480469 40.726562 L 115.480469 32.699219 C 115.480469 30.804688 114.464844 29.785156 112.871094 29.785156 C 111.277344 29.785156 109.984375 30.832031 109.984375 33.03125 Z M 136.382812 41.085938 C 132.34375 41.085938 129.511719 38.144531 129.511719 33.9375 C 129.511719 29.675781 132.289062 26.734375 136.273438 26.734375 C 140.339844 26.734375 142.921875 29.457031 142.921875 33.691406 L 142.921875 34.707031 L 132.699219 34.734375 C 132.949219 37.125 134.210938 38.335938 136.4375 38.335938 C 138.277344 38.335938 139.488281 37.621094 139.871094 36.328125 L 142.976562 36.328125 C 142.398438 39.296875 139.925781 41.085938 136.382812 41.085938 Z M 136.300781 29.484375 C 134.320312 29.484375 133.113281 30.554688 132.78125 32.589844 L 139.597656 32.589844 C 139.597656 30.71875 138.304688 29.484375 136.300781 29.484375 Z M 148.320312 40.726562 L 144.96875 40.726562 L 144.96875 27.148438 L 148.074219 27.148438 L 148.347656 28.90625 C 149.199219 27.53125 150.847656 26.734375 152.691406 26.734375 C 156.097656 26.734375 157.855469 28.851562 157.855469 32.371094 L 157.855469 40.726562 L 154.503906 40.726562 L 154.503906 33.167969 C 154.503906 30.886719 153.378906 29.785156 151.648438 29.785156 C 149.585938 29.785156 148.320312 31.214844 148.320312 33.414062 Z M 166.09375 41.085938 C 162.164062 41.085938 159.71875 38.199219 159.71875 33.992188 C 159.71875 29.757812 162.191406 26.734375 166.285156 26.734375 C 168.179688 26.734375 169.855469 27.53125 170.707031 28.878906 L 170.707031 20.273438 L 174.035156 20.273438 L 174.035156 40.726562 L 170.957031 40.726562 L 170.738281 38.609375 C 169.914062 40.175781 168.152344 41.085938 166.09375 41.085938 Z M 166.832031 38.003906 C 169.167969 38.003906 170.679688 36.328125 170.679688 33.882812 C 170.679688 31.433594 169.167969 29.730469 166.832031 29.730469 C 164.5 29.730469 163.070312 31.460938 163.070312 33.882812 C 163.070312 36.300781 164.5 38.003906 166.832031 38.003906 Z M 180.929688 41.085938 C 178.046875 41.085938 176.289062 39.40625 176.289062 36.851562 C 176.289062 34.347656 178.101562 32.78125 181.316406 32.535156 L 185.382812 32.234375 L 185.382812 31.929688 C 185.382812 30.089844 184.28125 29.347656 182.578125 29.347656 C 180.601562 29.347656 179.5 30.171875 179.5 31.601562 L 176.644531 31.601562 C 176.644531 28.660156 179.0625 26.734375 182.746094 26.734375 C 186.398438 26.734375 188.652344 28.714844 188.652344 32.480469 L 188.652344 40.726562 L 185.710938 40.726562 L 185.464844 38.71875 C 184.886719 40.121094 183.046875 41.085938 180.929688 41.085938 Z M 182.03125 38.554688 C 184.089844 38.554688 185.410156 37.320312 185.410156 35.230469 L 185.410156 34.515625 L 182.578125 34.734375 C 180.492188 34.925781 179.695312 35.613281 179.695312 36.714844 C 179.695312 37.949219 180.519531 38.554688 182.03125 38.554688 Z M 182.03125 38.554688"/>
</g>
</svg>